<svg width="93" height="104" viewBox="0 0 93 104" fill="none" xmlns="http://www.w3.org/2000/svg">
<text transform="translate(4 2.01459) rotate(-0.854904)" fill="white" stroke="#7367F0" stroke-width="6" stroke-linecap="round" stroke-linejoin="round" xml:space="preserve" style="white-space: pre" font-family="Lato" font-size="96" letter-spacing="0em"><tspan x="0" y="94.652">X</tspan></text>
<path fill-rule="evenodd" clip-rule="evenodd" d="M87.823 9.01099C90.3113 9.01099 92.3285 6.99381 92.3285 4.50549C92.3285 2.01718 90.3113 0 87.823 0C85.3347 0 83.3175 2.01718 83.3175 4.50549C83.3175 4.72379 83.333 4.93847 83.363 5.14847L76.8589 11.3557C76.3121 11.1197 75.7092 10.989 75.0758 10.989C74.2838 10.989 73.5396 11.1933 72.8929 11.5522L67.708 7.13861C67.7114 7.06719 67.7131 6.99533 67.7131 6.92307C67.7131 4.43476 65.6959 2.41758 63.2076 2.41758C60.7193 2.41758 58.7021 4.43476 58.7021 6.92307C58.7021 6.97245 58.7029 7.02163 58.7045 7.07063C55.0936 10.4582 50.4318 14.7752 48.7978 16.0935C47.8762 16.8371 47.7319 18.187 48.4755 19.1086C49.2191 20.0302 50.569 20.1745 51.4906 19.4309C53.1423 18.0982 57.4439 14.1261 60.9635 10.8308C61.6243 11.2111 62.3905 11.4286 63.2076 11.4286C64.0193 11.4286 64.7809 11.2139 65.4386 10.8383L70.5789 15.2139C70.5732 15.3067 70.5703 15.4003 70.5703 15.4945C70.5703 17.9828 72.5874 20 75.0758 20C77.5641 20 79.5813 17.9828 79.5813 15.4945C79.5813 15.239 79.56 14.9885 79.5191 14.7446L85.952 8.60535C86.5219 8.86583 87.1555 9.01099 87.823 9.01099Z" fill="white"/>
</svg>
